# xmcd
#
# Track frame offsets:
#	150
#	15884
#	31656
#	50012
#	66260
#	82111
#	100826
#	116634
#	133770
#	148765
#	171301
#	189276
#	208409
#
# Disc length: 3079 seconds
#
# Revision: 0
# Processed by: cddbd v1.5.1PL2 Copyright (c) Steve Scherf et al.
# Submitted via: dBpowerAMP V4.0
#
DISCID=b90c050d
DTITLE=Mariotti Brothers - Country Boys
DYEAR=1900
DGENRE=Country
TTITLE0=Country Boys
TTITLE1=Welcome Back Home In Oklahoma
TTITLE2=Angel
TTITLE3=The Strongest Of Them All
TTITLE4=In Vain
TTITLE5=Back In Town
TTITLE6=On The Wrong Side
TTITLE7=I Feel Good Down Home
TTITLE8=Let The Good Times Roll
TTITLE9=The Best Of My Country
TTITLE10=Bill The Bronc
TTITLE11=I Can't Get Over You Now
TTITLE12=Country Boys Remix
EXTD=
EXTT0=
EXTT1=
EXTT2=
EXTT3=
EXTT4=
EXTT5=
EXTT6=
EXTT7=
EXTT8=
EXTT9=
EXTT10=
EXTT11=
EXTT12=
PLAYORDER=
